<?xml version="1.0" standalone="no"?>
<!DOCTYPE svg PUBLIC "-//W3C//DTD SVG 20010904//EN"
 "http://www.w3.org/TR/2001/REC-SVG-20010904/DTD/svg10.dtd">
<svg version="1.0" xmlns="http://www.w3.org/2000/svg"
 width="475.000000pt" height="475.000000pt" viewBox="0 0 475.000000 475.000000"
 preserveAspectRatio="xMidYMid meet">

<g transform="translate(0.000000,475.000000) scale(0.100000,-0.100000)"
fill="#000000" stroke="none">
<path d="M2175 4744 c-491 -50 -931 -229 -1300 -527 -104 -84 -305 -290 -382
-392 -246 -325 -395 -670 -464 -1076 -20 -114 -23 -169 -23 -374 0 -270 17
-401 80 -632 153 -558 511 -1044 1007 -1367 260 -170 574 -290 908 -347 114
-20 169 -23 374 -23 205 0 260 3 374 23 406 69 751 218 1076 464 102 77 308
278 392 382 263 326 431 702 504 1126 20 114 23 169 23 374 0 270 -17 401 -80
632 -153 558 -511 1044 -1007 1367 -180 118 -417 225 -632 286 -202 57 -376
81 -605 85 -113 2 -223 1 -245 -1z m-249 -1129 c46 -55 84 -103 84 -107 0 -23
-31 1 -104 80 -180 192 -176 187 -169 212 6 23 9 22 56 -30 27 -30 87 -100
133 -155z m1094 169 c0 -12 -244 -277 -260 -282 -21 -7 -9 22 27 67 111 137
217 250 225 239 4 -7 8 -18 8 -24z m-1171 -197 c55 -59 101 -112 101 -117 0
-6 -7 -13 -16 -17 -11 -4 -45 23 -110 88 -87 87 -94 96 -94 133 0 23 4 36 9
31 4 -6 54 -58 110 -118z m1080 -44 c-87 -83 -124 -105 -124 -75 0 8 47 64
105 125 l105 112 3 -37 c3 -36 -2 -42 -89 -125z m-912 117 c37 -22 72 -40 77
-40 6 0 47 7 91 15 44 8 130 14 190 14 61 0 146 -6 190 -14 44 -8 85 -15 91
-15 5 0 40 18 77 40 36 22 69 40 72 40 3 0 -26 -41 -65 -91 -38 -50 -70 -99
-70 -109 0 -11 26 -37 65 -65 36 -25 90 -77 120 -115 48 -59 62 -86 99 -197
42 -124 60 -220 46 -243 -4 -7 -19 -6 -49 5 -24 8 -52 15 -62 15 -12 0 -19 7
-19 20 0 25 -24 73 -58 118 -57 75 -167 98 -240 50 -41 -28 -96 -112 -88 -135
6 -15 36 -18 36 -3 0 6 25 10 55 10 61 0 97 14 134 54 14 14 31 26 38 26 17 0
73 -88 73 -115 0 -18 -10 -23 -60 -33 -83 -17 -184 -71 -188 -100 -4 -29 8
-28 71 7 28 16 63 32 76 36 l24 7 -19 -26 c-13 -18 -42 -35 -84 -50 -53 -18
-66 -26 -68 -45 -3 -21 -1 -23 20 -17 66 18 71 19 64 8 -3 -6 -21 -14 -39 -17
-17 -4 -38 -12 -45 -17 -20 -17 5 -39 35 -32 l25 7 -21 -40 c-36 -71 -134 -94
-184 -44 -20 19 -19 20 28 87 56 80 53 92 -25 113 -45 13 -60 13 -108 0 -80
-20 -83 -32 -27 -113 47 -67 48 -68 28 -87 -50 -51 -148 -28 -183 42 l-22 42
25 -7 c30 -7 55 15 35 32 -7 5 -28 13 -45 17 -18 3 -36 11 -39 17 -7 11 -2 10
64 -8 21 -6 23 -4 20 17 -2 19 -15 27 -65 45 -38 13 -71 31 -84 48 -27 34 -18
33 65 -9 82 -41 88 -42 84 -13 -4 29 -105 83 -188 100 -50 10 -60 15 -60 33 0
27 56 115 73 115 7 0 24 -12 38 -26 37 -40 73 -54 134 -54 30 0 55 -4 55 -10
0 -15 30 -12 36 4 9 23 -45 105 -88 134 -73 48 -183 25 -240 -50 -34 -45 -58
-93 -58 -118 0 -13 -7 -20 -19 -20 -10 0 -38 -7 -62 -15 -30 -11 -45 -12 -49
-5 -14 23 4 119 46 243 37 111 51 138 99 197 30 38 84 90 120 115 39 28 65 54
65 65 0 10 -31 59 -70 109 -38 50 -67 91 -64 91 3 0 35 -18 71 -40z m-129
-246 c7 -26 -17 -21 -75 15 -59 38 -73 60 -73 118 0 16 143 -112 148 -133z
m1118 90 c-6 -27 -18 -41 -59 -69 -48 -32 -87 -45 -87 -28 0 14 145 153 148
143 2 -6 1 -27 -2 -46z m-1166 -150 c0 -6 -7 -17 -15 -24 -13 -10 -17 -7 -30
23 -20 48 -20 49 15 29 16 -9 30 -22 30 -28z m1119 2 c-15 -41 -24 -45 -39
-17 -8 16 -5 23 18 39 15 11 29 19 30 17 2 -2 -2 -20 -9 -39z m-839 -307 c0
-17 5 -20 32 -17 25 2 33 -1 36 -16 4 -17 0 -18 -34 -13 -69 11 -123 67 -65
67 25 0 31 -4 31 -21z m570 12 c0 -17 -51 -50 -86 -57 -40 -7 -47 -4 -38 19 4
12 14 15 34 11 22 -5 29 -2 35 15 6 21 55 31 55 12z m-743 -227 c18 -14 33
-29 33 -35 0 -5 -22 -9 -50 -9 -27 0 -73 -9 -102 -20 -28 -11 -53 -18 -55 -16
-2 2 -8 17 -12 34 -8 28 -7 31 28 45 76 33 116 34 158 1z m1020 1 c30 -13 33
-17 27 -42 -10 -43 -16 -44 -72 -23 -29 11 -75 20 -102 20 -28 0 -50 3 -50 8
0 4 14 20 32 35 29 25 38 27 82 22 27 -3 64 -12 83 -20z m-939 -101 c34 -23
27 -31 -33 -38 -31 -3 -79 -15 -108 -26 -66 -25 -64 -25 -81 9 -15 28 -15 29
22 44 71 31 165 36 200 11z m895 -8 c42 -17 44 -22 18 -55 l-18 -24 -44 18
c-24 9 -75 23 -113 29 l-70 12 23 23 c22 22 30 23 95 18 40 -3 89 -12 109 -21z
m-486 -11 c1 -5 -12 -28 -30 -49 l-33 -39 -32 43 c-17 24 -29 47 -26 52 8 12
117 6 121 -7z m-343 -108 c22 -49 68 -97 95 -97 5 0 27 -18 48 -41 48 -52 84
-71 138 -71 56 0 110 26 142 69 14 19 41 40 58 47 36 15 77 65 92 111 10 29
12 30 64 27 65 -4 118 -17 141 -34 15 -12 13 -19 -25 -76 -37 -56 -42 -61 -45
-38 -4 29 -26 50 -46 43 -7 -3 -19 -28 -26 -56 -12 -49 -50 -109 -154 -244
-25 -32 -51 -76 -57 -98 -7 -21 -16 -39 -20 -39 -10 0 -66 71 -78 101 -5 13
-12 36 -15 52 -5 18 -13 27 -26 27 -13 0 -24 -10 -31 -27 -24 -61 -52 -112
-74 -133 l-23 -21 -24 53 c-14 29 -52 87 -85 128 -81 102 -93 122 -118 193
-16 48 -25 62 -40 62 -13 0 -23 -10 -30 -31 l-10 -31 -42 63 -42 64 30 16 c25
13 86 25 167 33 7 0 23 -23 36 -52z m322 -82 c20 -14 43 -25 50 -25 24 0 15
-20 -18 -40 -41 -25 -93 -25 -138 -2 -44 24 -48 39 -13 46 15 4 39 15 53 26
14 11 26 20 27 20 1 0 19 -11 39 -25z m-544 -842 l3 -188 98 -3 97 -3 0 -34 0
-35 -135 0 -135 0 0 225 0 225 35 0 35 0 2 -187z m508 -38 l0 -225 -35 0 -35
0 0 225 0 225 35 0 35 0 0 -225z m610 195 l0 -29 -117 -3 -118 -3 -3 -62 -3
-63 106 0 105 0 0 -35 0 -35 -105 0 -105 0 0 -95 0 -95 -40 0 -40 0 0 225 0
225 160 0 160 0 0 -30z m-1327 -691 c30 -16 37 -28 37 -70 0 -51 -18 -70 -73
-76 l-47 -6 0 82 0 81 31 0 c17 0 40 -5 52 -11z m217 1 c0 -5 -18 -10 -40 -10
-36 0 -40 -2 -40 -25 0 -22 4 -25 40 -25 22 0 40 -4 40 -10 0 -5 -18 -10 -40
-10 -36 0 -40 -2 -40 -25 0 -22 4 -25 40 -25 22 0 40 -4 40 -10 0 -5 -22 -10
-50 -10 l-50 0 0 80 0 80 50 0 c28 0 50 -4 50 -10z m107 -42 c11 -29 25 -54
30 -55 6 -2 19 19 28 46 15 45 35 76 35 54 1 -20 -56 -153 -63 -150 -5 1 -20
29 -32 60 -33 80 -38 97 -27 97 5 0 18 -23 29 -52z m273 42 c0 -5 -18 -10 -40
-10 -36 0 -40 -2 -40 -25 0 -22 4 -25 35 -25 19 0 35 -4 35 -10 0 -5 -16 -10
-35 -10 -31 0 -35 -3 -35 -25 0 -22 4 -25 40 -25 22 0 40 -4 40 -10 0 -5 -22
-10 -50 -10 l-50 0 0 80 0 80 50 0 c28 0 50 -4 50 -10z m100 -60 l0 -70 35 0
c19 0 35 -4 35 -10 0 -5 -20 -10 -45 -10 l-45 0 0 80 c0 47 4 80 10 80 6 0 10
-30 10 -70z m255 45 c52 -51 21 -135 -49 -135 -41 0 -76 37 -76 82 0 36 40 78
75 78 14 0 37 -11 50 -25z m183 9 c12 -8 22 -21 22 -29 0 -21 -29 -45 -56 -45
-21 0 -24 -5 -24 -35 0 -19 -4 -35 -10 -35 -6 0 -10 33 -10 80 l0 80 28 0 c15
0 38 -7 50 -16z m192 6 c0 -5 -18 -10 -40 -10 -36 0 -40 -2 -40 -25 0 -22 4
-25 35 -25 19 0 35 -4 35 -10 0 -5 -16 -10 -35 -10 -31 0 -35 -3 -35 -25 0
-22 4 -25 40 -25 22 0 40 -4 40 -10 0 -5 -22 -10 -50 -10 l-50 0 0 80 0 80 50
0 c28 0 50 -4 50 -10z m161 0 c21 -12 25 -41 8 -68 -9 -14 -8 -26 5 -50 22
-43 3 -41 -23 3 -11 19 -27 35 -36 35 -11 0 -15 -10 -15 -35 0 -19 -4 -35 -10
-35 -6 0 -10 33 -10 80 l0 80 31 0 c17 0 39 -5 50 -10z"/>
<path d="M1600 1080 c0 -59 0 -60 29 -60 35 0 54 22 54 62 0 35 -24 58 -60 58
-21 0 -23 -4 -23 -60z"/>
<path d="M2526 1118 c-32 -46 -11 -100 39 -100 33 0 55 25 55 63 0 55 -64 80
-94 37z"/>
<path d="M2740 1115 c0 -23 4 -26 28 -23 19 2 27 9 27 23 0 14 -8 21 -27 23
-24 3 -28 0 -28 -23z"/>
<path d="M3090 1116 c0 -22 4 -26 31 -26 26 0 30 3 27 23 -2 16 -11 23 -30 25
-24 3 -28 0 -28 -22z"/>
</g>
</svg>
